# xmcd
#
# Track frame offsets:
#	183
#	16008
#	28413
#	42213
#	57015
#
# Disc length: 928 seconds
#
# Revision: 1
# Processed by: cddbd v1.5.1PL0 Copyright (c) Steve Scherf et al.
# Submitted via: audiograbber 1.83.01
#
DISCID=34039e05
DTITLE=Blackfire - Resist
DYEAR=1996
DGENRE=
TTITLE0=Resist
TTITLE1=Painkiller
TTITLE2=Fence
TTITLE3=Dark Desire
TTITLE4=Wall Inside
EXTD=
EXTT0=
EXTT1=
EXTT2=
EXTT3=
EXTT4=
PLAYORDER=
